# xmcd
#
# Track frame offsets: 
#        150
#        21098
#        40583
#        61139
#        86848
#        111387
#        134849
#        161298
#        173442
#
# Disc length: 2896 seconds
#
# Revision: 0
# Processed by: cddbd v1.5.2PL0 Copyright (c) Steve Scherf et al.
# Submitted via: ExactAudioCopy v0.99pb4
#
DISCID=6d0b4e09
DTITLE=Bill Callahan - Sometimes I wish we were an eagle
DYEAR=2009
DGENRE=Folk/Rock
TTITLE0=Jim Cain
TTITLE1=Eid Ma Clack Shaw
TTITLE2=The wind and the dove
TTITLE3=Rococo Zephyr
TTITLE4=Too many birds
TTITLE5=My friend
TTITLE6=All Thoughts Are Prey To Some Beast
TTITLE7=Invocation Of Ratiocination
TTITLE8=Faith_Void
EXTD=
EXTT0=
EXTT1=
EXTT2=
EXTT3=
EXTT4=
EXTT5=
EXTT6=
EXTT7=
EXTT8=
PLAYORDER=
